<svg id="Layer_1" data-name="Layer 1" xmlns="http://www.w3.org/2000/svg" viewBox="0 0 2532 3161.26"><defs><style>.cls-1{fill:#0286cf;}.cls-1,.cls-10,.cls-11,.cls-12,.cls-13,.cls-14,.cls-15,.cls-16,.cls-17,.cls-18,.cls-19,.cls-2,.cls-20,.cls-21,.cls-22,.cls-23,.cls-24,.cls-25,.cls-26,.cls-27,.cls-3,.cls-4,.cls-5,.cls-6,.cls-7,.cls-8,.cls-9{fill-rule:evenodd;}.cls-2{fill:#0067af;}.cls-3{fill:#1296df;}.cls-4{fill:#39d4ff;}.cls-5{fill:#29c4ff;}.cls-6{fill:#00478f;}.cls-7{fill:#19b4fd;}.cls-8{fill:#009a8f;}.cls-9{fill:#007b70;}.cls-10{fill:#07aa9f;}.cls-11{fill:#008a80;}.cls-12{fill:#17baaf;}.cls-13{fill:#4eeb90;}.cls-14{fill:#0eab51;}.cls-15{fill:#aff022;}.cls-16{fill:#53c406;}.cls-17{fill:#328a09;}.cls-18{fill:#97da04;}.cls-19{fill:#ebf855;}.cls-20{fill:#ffce4b;}.cls-21{fill:#f4aa35;}.cls-22{fill:#f8b22f;}.cls-23{fill:#f0882d;}.cls-24{fill:#f8be3b;}.cls-25{fill:#e57e22;}.cls-26{fill:#005b50;}.cls-27{fill:#106b60;}</style></defs><polygon class="cls-1" points="496.67 2659.53 255.43 1976.36 178.4 2207.46 214.89 2819.68 249.34 3129.85 496.67 2659.53"/><polygon class="cls-2" points="249.34 3129.85 214.89 2819.68 88.22 3161.26 260.77 3161.26 249.34 3129.85"/><polygon class="cls-3" points="255.43 1976.36 496.67 2659.53 932.18 1844.13 255.43 1976.36"/><polygon class="cls-4" points="178.4 2207.46 255.43 1976.36 0 2183.13 178.4 2207.46"/><polygon class="cls-5" points="255.43 1976.36 932.18 1844.13 1242.69 1262.77 255.43 1976.36"/><polygon class="cls-2" points="932.18 1844.13 496.67 2659.53 780.11 2508.28 1284.26 2239.26 1461.62 2144.62 932.18 1844.13"/><polygon class="cls-6" points="1284.26 2239.26 780.11 2508.28 882.83 2887.57 1284.26 2239.26"/><polygon class="cls-1" points="1284.26 2239.26 882.83 2887.57 1069.34 2911.9 1284.26 2239.26"/><polygon class="cls-7" points="1069.34 2911.9 882.83 2887.57 1055.14 3161.26 1195.01 3161.26 1069.34 2911.9"/><polygon class="cls-8" points="1686.64 2272.33 2021.14 2852.11 1996.81 1976.36 1461.62 2144.62 1686.64 2272.33"/><polygon class="cls-9" points="2021.14 2852.11 1686.64 2272.33 1906.44 2929.14 2070.15 2929.14 2021.14 2852.11"/><polygon class="cls-10" points="1461.62 2144.62 1996.81 1976.36 1547.06 1550.79 1242.69 1262.77 932.18 1844.13 1461.62 2144.62"/><polygon class="cls-11" points="1547.06 1550.79 1996.81 1976.36 2118.45 1585.1 1547.06 1550.79"/><polygon class="cls-12" points="1547.06 1550.79 2118.45 1585.1 2051.55 1124.92 1547.06 1550.79"/><polygon class="cls-13" points="1547.06 1550.79 2051.55 1124.92 1502.17 861.38 1547.06 1550.79"/><polygon class="cls-14" points="1547.06 1550.79 1502.17 861.38 1242.69 1262.77 1547.06 1550.79"/><polygon class="cls-15" points="1502.17 861.38 2051.55 1124.92 1755.57 587.7 1502.17 861.38"/><polygon class="cls-16" points="1755.57 587.7 2051.55 1124.92 2138.72 952.6 1755.57 587.7"/><polygon class="cls-17" points="1755.57 587.7 2138.72 952.6 2108.19 728.46 1763.68 478.23 1755.57 587.7"/><polygon class="cls-13" points="1587.31 620.14 1755.57 587.7 1763.68 478.23 1587.31 620.14"/><polygon class="cls-18" points="1763.68 478.23 2108.19 728.46 2061.68 387.01 1763.68 478.23"/><polygon class="cls-19" points="2061.68 387.01 2108.19 728.46 2456.99 680.96 2061.68 387.01"/><polygon class="cls-20" points="2456.99 680.96 2108.19 728.46 2424.56 934.36 2532 857.32 2456.99 680.96"/><polygon class="cls-21" points="2424.56 934.36 2108.19 728.46 2138.72 952.6 2424.56 934.36"/><polygon class="cls-22" points="1763.68 478.23 2061.68 387.01 1733.98 31.94 1030.81 136.63 1677.49 266.37 1763.68 478.23"/><polygon class="cls-23" points="1223.39 294.75 1677.49 266.37 1030.81 136.63 1223.39 294.75"/><polygon class="cls-24" points="1065.27 704.25 1223.39 294.75 1030.81 136.63 1065.27 704.25"/><polygon class="cls-25" points="1223.39 294.75 1065.27 704.25 1195.01 647.49 1223.39 294.75"/><polygon class="cls-20" points="1381.52 785.34 1195.01 647.49 1065.27 704.25 1381.52 785.34"/><polygon class="cls-18" points="1640.99 2951.45 2188.34 3012.26 2070.15 2929.14 1906.44 2929.14 1640.99 2951.45"/><polygon class="cls-16" points="2188.34 3012.26 1640.99 2951.45 1815.33 3161.26 2188.34 3012.26"/><polygon class="cls-17" points="1815.33 3161.26 1640.99 2951.45 1438.26 3161.26 1815.33 3161.26"/><polygon class="cls-17" points="2188.34 3012.26 1815.33 3161.26 2354.57 3161.26 2188.34 3012.26"/><polygon class="cls-18" points="2188.34 3012.26 2354.57 3161.26 2318.08 3008.21 2188.34 3012.26"/><polygon class="cls-26" points="1728.15 2773.04 1790.08 2581.42 1686.64 2272.33 1728.15 2773.04"/><polygon class="cls-27" points="1790.08 2581.42 1728.15 2773.04 1818.82 2936.5 1852.94 2769.28 1790.08 2581.42"/><polygon class="cls-10" points="1818.82 2936.5 1728.15 2773.04 1669.7 2949.03 1818.78 2936.51 1818.82 2936.5"/><polygon class="cls-13" points="1027.88 1381.58 1202.22 1254.96 1029.66 1156.1 1027.88 1381.58"/><polygon class="cls-12" points="824.64 1529.33 945.94 1441.24 825.89 1372.46 824.64 1529.33"/><polygon class="cls-3" points="945.15 1127.72 770.8 1254.34 943.36 1353.19 945.15 1127.72"/><polygon class="cls-3" points="1307 1113.65 1199.57 1121.77 1247.05 1209.13 1307 1113.65"/><polygon class="cls-3" points="1171.17 1004.18 1063.74 1012.3 1111.23 1099.66 1171.17 1004.18"/><polygon class="cls-23" points="1234.93 30.95 1069.94 104.15 1328.38 63.2 1234.93 30.95"/><polygon class="cls-20" points="1398.53 54.83 1576.66 25.72 1316.27 0 1398.53 54.83"/></svg>