<svg width="113" height="113" viewBox="0 0 113 113" fill="none" xmlns="http://www.w3.org/2000/svg">
<path d="M110.572 56.5C110.572 86.363 86.363 110.572 56.5 110.572C26.637 110.572 2.42773 86.363 2.42773 56.5C2.42773 26.637 26.637 2.42773 56.5 2.42773C86.363 2.42773 110.572 26.637 110.572 56.5Z" fill="url(#paint0_linear_34_677)"/>
<path d="M106.379 39.9473C106.379 41.1663 105.391 42.1543 104.172 42.1543C102.953 42.1543 101.965 41.1663 101.965 39.9473C101.965 21.6927 87.1139 6.8418 68.8594 6.8418H44.1406C25.8861 6.8418 11.0352 21.6927 11.0352 39.9473C11.0352 41.1663 10.0472 42.1543 8.82812 42.1543C7.60908 42.1543 6.62109 41.1663 6.62109 39.9473C6.62109 19.2589 23.4523 2.42773 44.1406 2.42773H68.8594C89.5477 2.42773 106.379 19.2589 106.379 39.9473Z" fill="#4F4F4F"/>
<path d="M113 35.0366V43.8648C113 47.521 110.036 50.4859 106.379 50.4859H103.73C103.73 51.5877 102.742 52.4817 101.523 52.4817C100.304 52.4817 99.3164 51.5877 99.3164 50.4859H95.3438C94.1247 50.4859 93.1367 49.4979 93.1367 48.2788V30.6226C93.1367 29.4035 94.1247 28.4155 95.3438 28.4155H98.6327L97.9129 26.437C97.2878 24.7188 98.1732 22.8187 99.8914 22.1936C101.61 21.5686 103.509 22.454 104.135 24.1722L105.679 28.4155H106.379C110.036 28.4155 113 31.3804 113 35.0366ZM17.6562 28.4155H14.3673L15.0871 26.437C15.7122 24.7188 14.8268 22.8187 13.1086 22.1936C11.3904 21.5686 9.4911 22.454 8.8652 24.1722L7.32114 28.4155H6.62109C2.96397 28.4155 0 31.3804 0 35.0366V43.8648C0 47.521 2.96397 50.4859 6.62109 50.4859H17.6562C18.8753 50.4859 19.8633 49.4979 19.8633 48.2788V30.6226C19.8633 29.4035 18.8753 28.4155 17.6562 28.4155Z" fill="url(#paint1_linear_34_677)"/>
<path d="M106.379 35.0366V43.8647C106.379 47.521 103.415 50.4858 99.7578 50.4858H95.3438C94.1247 50.4858 93.1367 49.4978 93.1367 48.2788V30.6226C93.1367 29.4035 94.1247 28.4155 95.3438 28.4155H99.7578C103.415 28.4155 106.379 31.3804 106.379 35.0366ZM6.62109 43.8647V35.0366C6.62109 32.3028 8.27895 29.957 10.6438 28.9466C10.7463 28.9035 10.8145 28.8043 10.8145 28.6931C10.8145 28.5397 10.6903 28.4155 10.5377 28.4155H6.62109C2.96397 28.4155 0 31.3804 0 35.0366V43.8647C0 47.5219 2.96397 50.4858 6.62109 50.4858H13.2422C9.58507 50.4858 6.62109 47.521 6.62109 43.8647Z" fill="#66815B"/>
<path d="M63.1211 74.9839C63.1211 79.8592 60.1571 83.812 56.5 83.812C52.8429 83.812 49.8789 79.8592 49.8789 74.9839C49.8789 70.1086 52.8429 66.1558 56.5 66.1558C60.1571 66.1558 63.1211 70.1086 63.1211 74.9839Z" fill="#ECECEC"/>
<path d="M63.1211 74.9838C63.1211 78.6039 61.4865 81.7127 59.1484 83.0748C56.8104 81.7127 55.1758 78.6039 55.1758 74.9838C55.1758 71.3638 56.8104 68.255 59.1484 66.8928C61.4865 68.255 63.1211 71.3638 63.1211 74.9838Z" fill="#F7F7F7"/>
<path d="M98.6543 40.7749C98.6543 57.8397 84.8207 71.6733 67.7559 71.6733H45.2441C28.1793 71.6733 14.3457 57.8397 14.3457 40.7749C14.3457 23.7101 28.1793 9.87646 45.2441 9.87646H67.7559C84.8207 9.87646 98.6543 23.7101 98.6543 40.7749ZM68.8594 76.0874H44.1406C32.1166 76.0874 21.6987 82.9559 16.5924 92.9841C26.4792 103.792 40.6973 110.572 56.5 110.572C72.3027 110.572 86.5208 103.792 96.4076 92.9841C91.3013 82.9559 80.8834 76.0874 68.8594 76.0874Z" fill="#ECECEC"/>
<path d="M67.7558 71.6733H53.8472C36.7823 71.6733 22.9487 57.8397 22.9487 40.7749C22.9487 23.7101 36.7823 9.87646 53.8472 9.87646H67.7558C84.8206 9.87646 98.6542 23.7101 98.6542 40.7749C98.6542 57.8397 84.8206 71.6733 67.7558 71.6733ZM56.4999 110.572C72.3026 110.572 86.5207 103.792 96.4075 92.9841C91.3012 82.9559 80.8833 76.0874 68.8593 76.0874H52.9687C38.654 76.0874 26.6162 85.8216 23.1074 99.0319C32.301 106.261 43.8974 110.572 56.4999 110.572Z" fill="white"/>
<path d="M76.3633 100.42C76.3633 102.828 75.9339 105.134 75.1486 107.269C69.3353 109.406 63.0538 110.352 56.5 110.352C49.9462 110.352 43.6647 109.406 37.8514 107.269C37.0661 105.134 36.6367 102.828 36.6367 100.42C36.6367 89.4494 45.5295 80.5566 56.5 80.5566C67.4705 80.5566 76.3633 89.4494 76.3633 100.42Z" fill="#0088CC"/>
<path d="M71.0664 59.5347H41.9336C33.4012 59.5347 26.4844 52.6179 26.4844 44.0854V37.4644C26.4844 28.9319 33.4012 22.0151 41.9336 22.0151H71.0664C79.5988 22.0151 86.5156 28.9319 86.5156 37.4644V44.0854C86.5156 52.6179 79.5988 59.5347 71.0664 59.5347ZM49.6617 105.415C45.0114 104.378 41.6232 100.306 41.6025 95.5412C41.6025 95.5119 41.6025 95.4834 41.6025 95.4541C41.6025 91.2375 42.9173 87.3286 45.1579 84.112C40.0076 87.701 36.6367 93.6661 36.6367 100.42C36.6367 102.828 37.0661 105.134 37.8514 107.269C43.6647 109.406 49.9462 110.572 56.5 110.572C63.0521 110.572 69.331 109.407 75.1425 107.272C75.4417 106.457 75.6943 105.62 75.8865 104.759C71.2949 106.028 66.461 106.71 61.4658 106.71C57.4113 106.71 53.461 106.263 49.6617 105.415Z" fill="#006CBC"/>
<path d="M71.0664 59.5347H48.5547C40.0223 59.5347 33.1055 52.6179 33.1055 44.0854V37.4644C33.1055 28.9319 40.0223 22.0151 48.5547 22.0151H71.0664C79.5988 22.0151 86.5156 28.9319 86.5156 37.4644V44.0854C86.5156 52.6179 79.5988 59.5347 71.0664 59.5347Z" fill="#0088CC"/>
<path d="M62.7428 46.9942C63.6049 47.8564 63.6049 49.253 62.7428 50.1151C59.3003 53.5576 53.7 53.5576 50.2575 50.1151C49.3963 49.2539 49.3963 47.8564 50.2575 46.9942C51.1196 46.1321 52.5171 46.1321 53.3793 46.9942C55.1001 48.715 57.9002 48.715 59.6219 46.9942C60.0529 46.5632 60.6176 46.3477 61.1823 46.3477C61.747 46.3477 62.3117 46.5632 62.7428 46.9942ZM49.9187 33.4796C46.4762 30.038 40.875 30.038 37.4335 33.4796C36.5713 34.3418 36.5713 35.7393 37.4335 36.6014C38.2956 37.4626 39.6931 37.4626 40.5552 36.6014C42.276 34.8797 45.0762 34.8797 46.797 36.6014C47.228 37.0324 47.7927 37.248 48.3574 37.248C48.9221 37.248 49.4876 37.0324 49.9187 36.6014C50.78 35.7393 50.78 34.3418 49.9187 33.4796ZM75.5668 33.4796C72.1244 30.038 66.524 30.038 63.0816 33.4796C62.2203 34.3418 62.2203 35.7393 63.0816 36.6014C63.9437 37.4626 65.3412 37.4626 66.2033 36.6014C67.9241 34.8797 70.7243 34.8797 72.4459 36.6014C72.877 37.0324 73.4417 37.248 74.0064 37.248C74.5711 37.248 75.1358 37.0324 75.5668 36.6014C76.4289 35.7393 76.4289 34.3418 75.5668 33.4796Z" fill="white"/>
<path d="M59.8105 98.875V110.472C58.7148 110.539 57.6121 110.572 56.5 110.572C55.3879 110.572 54.2852 110.539 53.1895 110.472V98.875C53.1895 97.0464 54.6714 95.5645 56.5 95.5645C58.3286 95.5645 59.8105 97.0464 59.8105 98.875Z" fill="#E3E3E3"/>
<path d="M59.8105 98.875V103.73C59.8105 105.559 58.3286 107.041 56.5 107.041C54.6714 107.041 53.1895 105.559 53.1895 103.73V98.875C53.1895 97.0464 54.6714 95.5645 56.5 95.5645C58.3286 95.5645 59.8105 97.0464 59.8105 98.875ZM56.5 92.916C58.6941 92.916 60.4727 91.1375 60.4727 88.9434C60.4727 86.7493 58.6941 84.9707 56.5 84.9707C54.3059 84.9707 52.5273 86.7493 52.5273 88.9434C52.5273 91.1375 54.3059 92.916 56.5 92.916Z" fill="#FFF5F5"/>
<path d="M103.73 50.4858V54.8999C103.73 59.7674 99.7699 63.728 94.9023 63.728H57.3828V59.314H94.9023C97.3361 59.314 99.3164 57.3337 99.3164 54.8999V50.4858H103.73Z" fill="#4F4F4F"/>
<path d="M63.7711 64.9109H49.2289C47.1503 64.9109 45.4648 63.2254 45.4648 61.1468C45.4648 59.0683 47.1503 57.3828 49.2289 57.3828H63.7711C65.8497 57.3828 67.5352 59.0683 67.5352 61.1468C67.5352 63.2263 65.8497 64.9109 63.7711 64.9109Z" fill="#465C3E"/>
<path d="M63.7711 64.9109H55.85C53.7714 64.9109 52.0859 63.2254 52.0859 61.1468C52.0859 59.0683 53.7714 57.3828 55.85 57.3828H63.7711C65.8497 57.3828 67.5352 59.0683 67.5352 61.1468C67.5352 63.2263 65.8497 64.9109 63.7711 64.9109Z" fill="#66815B"/>
<defs>
<linearGradient id="paint0_linear_34_677" x1="2.42773" y1="2.42773" x2="118.787" y2="12.1387" gradientUnits="userSpaceOnUse">
<stop stop-color="#48B760"/>
<stop offset="1" stop-color="#6BB748"/>
</linearGradient>
<linearGradient id="paint1_linear_34_677" x1="0" y1="21.9932" x2="111.74" y2="56.5562" gradientUnits="userSpaceOnUse">
<stop stop-color="#294E31"/>
<stop offset="1" stop-color="#485C3E"/>
</linearGradient>
</defs>
</svg>
